<svg xmlns="http://www.w3.org/2000/svg" viewBox="0 0 512 512" role="img" aria-label="TopVapes.pt favicon">
  <defs>
    <linearGradient id="bg" x1="0" y1="0" x2="1" y2="1">
      <stop offset="0" stop-color="#052b24"/>
      <stop offset="1" stop-color="#007049"/>
    </linearGradient>
    <filter id="shadow" x="-20%" y="-20%" width="140%" height="140%">
      <feDropShadow dx="0" dy="10" stdDeviation="10" flood-color="#000" flood-opacity="0.35"/>
    </filter>
  </defs>
  <rect width="512" height="512" rx="92" fill="url(#bg)"/>
  <rect x="31" y="41" width="450" height="430" rx="72" fill="#000" opacity="0.28"/>
  <rect x="49" y="67" width="51" height="378" rx="25" fill="#00a663"/>
  <rect x="412" y="67" width="51" height="378" rx="25" fill="#da291c"/>
  <g filter="url(#shadow)">
    <text x="112" y="337" fill="#f7fffa" font-family="Arial Black, Arial, sans-serif" font-size="220" font-weight="900">T</text>
    <text x="215" y="337" fill="#00a663" font-family="Arial Black, Arial, sans-serif" font-size="220" font-weight="900">V</text>
    <text x="272" y="389" fill="#f7fffa" font-family="Arial, sans-serif" font-size="96" font-weight="800">.pt</text>
  </g>
  <path d="M126 372c54 46 157 55 226 13" fill="none" stroke="#ffcd00" stroke-width="16" stroke-linecap="round"/>
  <path d="M145 391c50 31 137 35 193 5" fill="none" stroke="#da291c" stroke-width="12" stroke-linecap="round"/>
  <g transform="translate(352 154) rotate(13)">
    <rect x="-18" y="-84" width="36" height="168" rx="14" fill="#f7fffa"/>
    <rect x="-13" y="-56" width="26" height="84" rx="9" fill="#071f1c"/>
    <rect x="-11" y="36" width="22" height="23" rx="8" fill="#ffcd00"/>
  </g>
</svg>
